<?xml version="1.0" encoding="utf-8"?>
<svg xmlns="http://www.w3.org/2000/svg" fill="none" height="100%" overflow="visible" preserveAspectRatio="none" style="display: block;" viewBox="0 0 15.3944 16.2297" width="100%">
<path d="M7.98319 0.00106502C8.05616 -0.000116509 8.11538 0.0591652 8.11539 0.132142V2.96458C8.11538 3.03756 8.0562 3.09653 7.98324 3.09846C6.70012 3.13222 5.47665 3.65668 4.56667 4.56666C3.62549 5.50784 3.09673 6.78436 3.09673 8.11538C3.09673 9.44641 3.62549 10.7229 4.56667 11.6641C5.47665 12.5741 6.70012 13.0985 7.98324 13.1323C8.0562 13.1342 8.11539 13.1932 8.11539 13.2662V16.0986C8.11539 16.1716 8.05616 16.2309 7.98319 16.2297C5.87869 16.1954 3.86768 15.3446 2.37693 13.8538C0.855011 12.3319 1.76295e-06 10.2677 0 8.11538C5.98739e-08 5.96305 0.855006 3.89886 2.37693 2.37693C3.86768 0.886192 5.87869 0.0353107 7.98319 0.00106502ZM15.3944 6.07658C15.3944 6.15833 15.3282 6.2246 15.2464 6.2246H12.4302C12.3484 6.2246 12.2821 6.15833 12.2821 6.07658V3.1123H15.2464C15.3282 3.1123 15.3944 3.17858 15.3944 3.26033V6.07658ZM12.2821 3.1123H9.31786C9.23611 3.1123 9.16983 3.04603 9.16983 2.96428V0.148027C9.16983 0.0662738 9.23611 0 9.31786 0H12.1341C12.2159 0 12.2821 0.0662739 12.2821 0.148027V3.1123Z" fill="var(--fill-0, #066EFF)" id="Union"/>
</svg>