<?xml version="1.0" encoding="utf-8"?>
<svg xmlns="http://www.w3.org/2000/svg" fill="none" height="100%" overflow="visible" preserveAspectRatio="none" style="display: block;" viewBox="0 0 32 24" width="100%">
<g id="Frame 2147227938">
<g id="Group 48097461">
<rect fill="var(--fill-0, #5AD2FF)" height="3.48778" id="Rectangle 543486" rx="1.74389" width="3.48778" x="18.6133" y="15.5122"/>
<g id="Vector 26">
<path d="M9.02725 5H7.90231C7.09237 5 6.35538 5.46807 6.01105 6.20117L1.39858 16.0213C0.747709 17.407 1.75888 18.9991 3.28984 18.9991H4.46436C5.27744 18.9991 6.01667 18.5274 6.35929 17.7901L10.9222 7.96997C11.5657 6.58496 10.5545 5 9.02725 5Z" fill="var(--fill-0, #5AD2FF)"/>
<path d="M19.2943 5H20.3819C21.9074 5 22.9187 6.58167 22.2785 7.96632L20.9582 10.8222C20.6164 11.5616 19.8761 12.0349 19.0616 12.0349H14.706L16.6083 16.0071C17.2725 17.3941 16.2615 18.9991 14.7238 18.9991H13.6296C12.8195 18.9991 12.0824 18.5308 11.7381 17.7974L10.4309 15.0122C9.78047 13.6265 10.7916 12.0349 12.3224 12.0349H14.706L17.3977 6.21266C17.7395 5.47332 18.4798 5 19.2943 5Z" fill="var(--fill-0, #5AD2FF)"/>
</g>
</g>
</g>
</svg>