<?xml version="1.0" encoding="utf-8"?>
<svg xmlns="http://www.w3.org/2000/svg" fill="none" height="100%" overflow="visible" preserveAspectRatio="none" style="display: block;" viewBox="0 0 33 24" width="100%">
<g id="Frame 2147227938">
<g id="Group 48097461">
<rect fill="var(--fill-0, #5AD2FF)" height="3.73691" id="Rectangle 543486" rx="1.86846" width="3.73691" x="19.943" y="15.763"/>
<g id="Vector 26">
<path d="M9.67215 4.5H8.46685C7.59906 4.5 6.80943 5.00151 6.4405 5.78697L1.49857 16.3085C0.801207 17.7932 1.8846 19.499 3.52492 19.499H4.78334C5.65449 19.499 6.44653 18.9937 6.81361 18.2036L11.7024 7.68211C12.3919 6.19818 11.3084 4.5 9.67215 4.5Z" fill="var(--fill-0, #5AD2FF)"/>
<path d="M20.6726 4.5H21.8379C23.4723 4.5 24.5558 6.19464 23.87 7.6782L22.4553 10.7381C22.0891 11.5302 21.296 12.0374 20.4232 12.0374H15.7566L17.7947 16.2933C18.5063 17.7793 17.4232 19.499 15.7755 19.499H14.6033C13.7353 19.499 12.9455 18.9973 12.5767 18.2115L11.176 15.2273C10.4792 13.7427 11.5626 12.0374 13.2026 12.0374H15.7566L18.6405 5.79928C19.0067 5.00713 19.7999 4.5 20.6726 4.5Z" fill="var(--fill-0, #5AD2FF)"/>
</g>
</g>
</g>
</svg>