<?xml version="1.0" encoding="utf-8"?>
<svg xmlns="http://www.w3.org/2000/svg" fill="none" height="100%" overflow="visible" preserveAspectRatio="none" style="display: block;" viewBox="0 0 623.986 657.841" width="100%">
<path d="M323.584 0.0431686C326.542 -0.00472249 328.942 2.39816 328.942 5.35614V120.164C328.942 123.122 326.543 125.512 323.586 125.59C271.577 126.959 221.986 148.217 185.101 185.101C146.952 223.25 125.52 274.992 125.52 328.942C125.52 382.893 146.953 434.634 185.101 472.783C221.986 509.668 271.577 530.925 323.586 532.293C326.543 532.371 328.942 534.763 328.942 537.721V652.528C328.942 655.486 326.542 657.888 323.584 657.841C238.282 656.452 156.769 621.964 96.3447 561.539C34.6563 499.85 7.14579e-05 416.183 0 328.942C2.42688e-06 241.702 34.6561 158.033 96.3447 96.3447C156.769 35.9202 238.282 1.43125 323.584 0.0431686ZM623.986 246.303C623.986 249.617 621.299 252.303 617.986 252.303H503.834C500.52 252.303 497.834 249.617 497.834 246.303V126.152H617.986C621.299 126.152 623.986 128.838 623.986 132.152V246.303ZM497.834 126.152H377.683C374.369 126.152 371.683 123.465 371.683 120.152V6C371.683 2.68629 374.369 0 377.683 0H491.834C495.148 0 497.834 2.68629 497.834 6V126.152Z" fill="var(--fill-0, #066EFF)" id="Union"/>
</svg>