<?xml version="1.0" encoding="utf-8"?>
<svg xmlns="http://www.w3.org/2000/svg" fill="none" height="100%" overflow="visible" preserveAspectRatio="none" style="display: block;" viewBox="0 0 13.855 14.6067" width="100%">
<path d="M7.18487 0.000958516C7.25054 -0.000104858 7.30384 0.0532487 7.30385 0.118928V2.66813C7.30385 2.73381 7.25058 2.78688 7.18492 2.78861C6.0301 2.819 4.92899 3.29101 4.11 4.11C3.26294 4.95706 2.78705 6.10592 2.78705 7.30385C2.78706 8.50177 3.26294 9.65063 4.11 10.4977C4.92899 11.3167 6.03011 11.7887 7.18492 11.8191C7.25058 11.8208 7.30385 11.8739 7.30385 11.9396V14.4887C7.30385 14.5544 7.25054 14.6078 7.18487 14.6067C5.29082 14.5759 3.48091 13.8101 2.13924 12.4684C0.76951 11.0987 1.58665e-06 9.24094 0 7.30385C5.38865e-08 5.36675 0.769505 3.50898 2.13924 2.13924C3.48091 0.797573 5.29082 0.0317796 7.18487 0.000958516ZM13.855 5.46892C13.855 5.5425 13.7953 5.60214 13.7218 5.60214H11.1871C11.1136 5.60214 11.0539 5.5425 11.0539 5.46892V2.80107H13.7218C13.7953 2.80107 13.855 2.86072 13.855 2.9343V5.46892ZM11.0539 2.80107H8.38607C8.3125 2.80107 8.25285 2.74143 8.25285 2.66785V0.133224C8.25285 0.0596466 8.3125 0 8.38607 0H10.9207C10.9943 0 11.0539 0.0596465 11.0539 0.133224V2.80107Z" fill="var(--fill-0, #066EFF)" id="Union"/>
</svg>